<?xml version="1.0" standalone="no"?>
<!DOCTYPE svg PUBLIC "-//W3C//DTD SVG 20010904//EN"
 "http://www.w3.org/TR/2001/REC-SVG-20010904/DTD/svg10.dtd">
<svg version="1.0" xmlns="http://www.w3.org/2000/svg"
 width="512.000000pt" height="512.000000pt" viewBox="0 0 512.000000 512.000000"
 preserveAspectRatio="xMidYMid meet">
<metadata>
Created by potrace 1.16, written by Peter Selinger 2001-2019
</metadata>
<g transform="translate(0.000000,512.000000) scale(0.100000,-0.100000)"
fill="#000000" stroke="none">
<path d="M1275 3667 c-16 -5 -40 -14 -52 -20 -14 -6 -52 -6 -112 1 -51 6 -98
9 -105 6 -29 -11 -35 -67 -40 -384 -11 -632 -19 -1757 -12 -1783 8 -33 31 -40
226 -67 80 -11 157 -23 170 -25 14 -3 70 -12 125 -20 174 -26 204 -32 218 -43
8 -7 16 -10 19 -7 3 3 159 -20 348 -50 248 -41 355 -62 384 -78 59 -30 174
-30 237 1 34 16 135 37 382 77 186 30 347 57 359 60 111 25 169 35 588 96 83
12 141 26 150 35 13 13 15 85 12 552 -1 295 -5 620 -7 722 -2 102 -7 338 -10
525 -4 187 -9 348 -11 358 -9 32 -37 37 -128 25 -71 -9 -92 -8 -113 3 -43 23
-216 19 -538 -12 -423 -41 -594 -80 -672 -152 -13 -11 -25 -18 -28 -15 -9 9
83 66 140 87 64 24 171 45 365 70 80 11 129 20 110 20 -52 1 -367 -46 -430
-65 -109 -32 -213 -104 -249 -173 -19 -34 -6 -24 24 19 15 22 30 38 32 36 2
-2 -12 -25 -31 -50 -20 -26 -41 -65 -48 -87 l-12 -41 -22 48 c-48 108 -116
171 -226 212 -56 21 -183 47 -268 56 -25 2 -62 7 -82 11 -21 4 -115 15 -210
25 -95 10 -153 18 -128 19 25 0 103 -6 174 -14 72 -8 131 -13 133 -11 14 14
-304 40 -357 30 -39 -8 -121 -5 -240 9 -19 3 -48 0 -65 -6z m290 -58 c184 -16
402 -39 451 -48 25 -5 57 -19 71 -32 26 -24 26 -24 14 -1 -15 28 -7 28 117 2
198 -42 282 -128 316 -326 21 -120 21 -168 0 -160 -9 4 -22 2 -29 -4 -9 -8
-15 -8 -20 0 -3 6 -41 -20 -91 -61 -82 -69 -85 -71 -114 -59 -17 7 -33 10 -37
7 -3 -3 6 -9 21 -13 14 -3 26 -10 26 -14 0 -5 -20 -25 -45 -46 -26 -20 -44
-44 -43 -53 4 -20 -13 -19 -112 9 -102 28 -269 40 -393 29 -56 -5 -102 -11
-104 -13 -2 -1 75 -2 170 -2 138 0 195 -5 287 -23 63 -12 122 -29 132 -37 15
-14 24 -9 95 50 43 36 98 80 123 98 41 29 43 30 21 5 l-24 -26 24 -20 c13 -11
29 -20 35 -21 7 0 19 -15 28 -34 9 -18 26 -40 39 -49 22 -14 26 -13 68 20 64
51 66 58 29 110 -29 40 -32 50 -27 94 3 27 2 51 -4 54 -13 9 -11 92 5 178 30
153 102 242 231 285 118 40 452 82 903 116 l62 4 0 -241 c0 -133 3 -548 7
-923 l6 -681 -154 -6 c-147 -7 -277 -20 -309 -33 -8 -4 -40 -8 -70 -10 -77 -4
-349 -75 -445 -116 -86 -36 -184 -99 -224 -142 -29 -31 -52 -33 -68 -7 -19 30
-153 115 -239 151 -181 75 -550 146 -821 157 l-143 6 0 923 0 923 58 -5 c31
-2 111 -9 177 -15z m-470 -312 c4 -193 3 -402 -4 -546 -6 -129 -11 -447 -11
-708 0 -455 1 -474 19 -492 24 -24 7 -21 406 -71 311 -39 845 -131 875 -151
59 -38 104 -51 187 -50 75 1 92 4 141 31 89 47 472 116 1022 185 269 33 265
33 292 54 l23 19 -1 494 c0 271 -6 610 -13 753 -9 194 -9 327 -1 524 10 252
15 291 40 276 4 -2 10 -307 13 -677 4 -370 10 -840 14 -1044 l6 -372 -53 -11
c-85 -18 -210 -39 -282 -46 -38 -4 -68 -12 -68 -17 0 -5 15 -7 33 -4 17 3 68
7 112 10 l80 5 -110 -20 c-273 -47 -875 -129 -959 -130 -94 -1 -174 -15 -111
-19 l30 -2 -30 -7 c-17 -4 -43 -16 -59 -26 -19 -13 -53 -20 -107 -23 -70 -4
-85 -2 -131 21 -29 15 -64 28 -78 31 -14 3 -8 4 12 2 24 -1 34 2 29 7 -6 6
-76 13 -158 18 -134 7 -655 77 -948 128 l-110 19 80 -4 c44 -3 95 -7 113 -10
17 -3 32 -1 32 4 0 5 -46 14 -102 21 -119 15 -243 38 -276 52 l-24 9 6 214 c3
118 8 510 12 872 3 363 7 677 9 699 2 22 3 99 4 172 1 123 2 131 20 126 18 -4
19 -23 26 -316z m195 291 c0 -13 2 -422 4 -910 4 -831 2 -917 -21 -894 -3 3
-8 81 -11 173 -7 244 -21 236 -22 -11 0 -214 -12 -281 -16 -88 -1 59 -6 150
-10 202 l-9 95 -8 -90 c-4 -49 -10 -161 -13 -247 -3 -87 -9 -158 -14 -158 -5
0 -7 86 -4 198 9 450 16 860 15 901 -1 27 4 48 11 52 10 6 10 11 1 20 -8 8 -9
17 -3 24 5 6 12 96 16 201 12 325 21 342 23 40 0 -154 3 -277 5 -275 7 7 16
192 21 414 6 261 14 375 26 375 5 0 9 -10 9 -22z m2564 -20 c3 -24 8 -151 11
-283 3 -132 7 -256 9 -275 3 -19 5 -51 6 -70 l2 -35 7 30 c4 17 6 122 4 235
-1 127 1 197 7 185 5 -11 9 -76 9 -145 1 -69 6 -165 12 -215 5 -49 11 -133 13
-185 2 -52 6 -107 11 -122 5 -19 3 -28 -4 -28 -8 0 -9 -6 -3 -17 12 -24 23
-985 11 -977 -5 3 -9 69 -10 147 0 78 -6 180 -13 227 l-12 85 -7 -85 c-4 -47
-7 -134 -7 -193 0 -60 -4 -106 -8 -103 -4 2 -7 80 -6 173 1 158 -9 293 -16
218 -1 -16 -5 -101 -9 -188 -4 -94 -10 -157 -16 -157 -7 0 -11 312 -13 910 -1
566 1 910 7 910 6 0 12 -19 15 -42z m-2199 -1839 c276 -27 572 -105 722 -190
78 -45 75 -55 -4 -16 -55 28 -232 97 -249 97 -2 0 -4 -4 -4 -9 0 -5 25 -19 55
-31 31 -13 54 -24 53 -25 -2 -2 -61 12 -133 30 -135 35 -198 35 -85 1 79 -24
59 -32 -33 -13 -131 28 -48 -9 122 -53 70 -18 39 -23 -46 -6 -114 22 -265 44
-456 65 -165 19 -215 30 -146 32 l34 1 -40 8 c-22 5 -82 12 -132 16 -51 4 -93
11 -93 17 0 6 28 8 78 4 42 -4 131 -9 197 -11 l120 -5 -95 19 c-52 10 -138 23
-190 28 -81 9 -65 10 115 6 243 -4 242 9 -2 28 -84 7 -153 16 -153 21 0 10
199 2 365 -14z m2175 11 c0 -5 -22 -10 -48 -10 -80 0 -266 -21 -277 -31 -6 -6
60 -8 185 -5 145 4 176 3 120 -4 -231 -28 -266 -33 -280 -42 -15 -9 67 -7 288
9 59 4 92 2 92 -4 0 -6 -44 -13 -99 -16 -55 -4 -110 -11 -123 -16 l-23 -10 24
0 c57 -2 4 -13 -124 -27 -160 -16 -303 -37 -464 -65 -62 -11 -115 -18 -118
-16 -2 2 49 19 112 37 64 18 118 37 121 42 3 5 -5 6 -18 3 -70 -16 -163 -33
-166 -30 -2 2 28 14 67 26 69 22 100 46 44 33 -88 -20 -184 -45 -221 -58 -70
-25 -38 0 38 29 59 22 97 45 76 45 -24 0 -206 -67 -270 -100 -44 -22 -81 -38
-83 -36 -7 6 94 64 154 90 151 63 435 128 637 146 245 21 356 24 356 10z"/>
<path d="M1885 3521 c-16 -8 -17 -10 -3 -10 27 -1 76 -49 88 -87 15 -44 8 -52
-22 -24 -13 11 -48 34 -78 51 l-55 29 48 -46 c53 -51 56 -64 8 -40 -34 18 -76
21 -66 6 4 -6 -19 -11 -62 -11 l-68 -2 70 -6 c39 -4 76 -10 83 -15 7 -4 12
-30 12 -67 l0 -59 -107 -1 c-115 -2 -110 -4 30 -14 69 -5 87 -10 87 -22 0 -26
40 -83 70 -98 35 -18 51 -19 30 -2 -28 21 -50 61 -50 87 l0 25 25 -31 c13 -17
36 -39 50 -48 l25 -16 -20 32 c-25 41 -25 47 -1 41 10 -2 25 -20 34 -39 19
-38 94 -124 109 -124 6 0 38 24 71 52 40 35 62 48 65 40 5 -17 41 40 54 86 5
18 14 30 19 26 14 -8 3 -52 -21 -85 -13 -19 -15 -26 -5 -26 8 0 13 3 13 6 -2
12 14 41 23 41 6 0 4 -10 -2 -22 -11 -21 -11 -22 4 -9 10 7 17 24 17 37 0 40
20 27 21 -13 1 -38 1 -38 9 -8 8 29 8 29 10 -10 l3 -40 4 34 c6 47 -12 114
-43 161 -18 27 -25 49 -22 69 3 17 0 27 -5 24 -6 -3 -7 -33 -4 -69 8 -79 -5
-84 -20 -9 -18 85 -69 141 -144 159 l-26 6 23 -47 c28 -55 33 -108 8 -99 -9 3
-19 6 -24 6 -5 0 -11 18 -15 40 -8 46 -38 94 -78 124 -30 22 -137 33 -172 17z"/>
<path d="M1883 3063 l6 -32 -102 6 c-58 3 -117 1 -137 -5 -31 -9 -25 -10 50
-11 80 -2 128 -7 278 -30 65 -10 96 -6 86 10 -3 5 7 9 23 10 25 0 26 1 8 9
-13 6 -15 9 -5 9 13 1 13 2 0 11 -9 7 -45 8 -91 4 -75 -6 -77 -5 -99 23 l-23
28 6 -32z"/>
<path d="M2527 2709 c-109 -93 -132 -119 -107 -119 6 0 21 -12 34 -27 17 -20
27 -25 37 -18 8 6 22 10 33 10 11 0 103 -86 224 -210 112 -116 176 -178 141
-140 -35 39 -82 93 -104 120 -22 27 -78 95 -124 150 -82 97 -86 100 -122 97
-24 -2 -48 3 -64 14 -25 16 -26 19 -10 31 15 10 22 9 45 -7 26 -19 29 -19 69
-3 29 11 45 13 49 6 11 -16 503 -602 535 -637 16 -17 8 -3 -18 32 -26 35 -45
65 -43 67 8 8 239 45 286 46 26 1 58 5 72 10 69 24 -278 -10 -360 -36 -12 -4
-31 15 -69 66 -29 39 -51 72 -49 74 17 16 302 55 407 55 41 0 72 3 68 6 -21
22 -366 -7 -445 -37 -40 -15 -48 -11 -92 52 -34 48 -40 63 -29 70 22 14 216
57 309 69 47 6 138 10 202 8 78 -2 114 0 107 7 -6 6 -73 10 -162 10 -167 -1
-263 -17 -400 -65 l-78 -28 -53 72 c-146 198 -152 211 -131 259 5 12 1 25 -12
40 -11 12 -19 27 -16 34 12 33 -24 12 -130 -78z"/>
<path d="M2561 2456 c-12 -14 -13 -439 -1 -781 5 -148 6 -130 8 145 1 173 5
390 9 483 3 92 4 167 1 167 -3 0 -11 -6 -17 -14z"/>
</g>
</svg>
