<svg width="24" height="24" viewBox="0 0 24 24" fill="none" xmlns="http://www.w3.org/2000/svg">
<path d="M13.2605 2.99958C8.17052 2.85958 4.00052 6.94958 4.00052 11.9996H2.21052C1.76052 11.9996 1.54052 12.5396 1.86052 12.8496L4.65052 15.6496C4.85052 15.8496 5.16052 15.8496 5.36052 15.6496L8.15052 12.8496C8.21962 12.7791 8.26631 12.6897 8.2847 12.5927C8.30309 12.4957 8.29236 12.3955 8.25386 12.3046C8.21537 12.2137 8.15082 12.1362 8.06837 12.0819C7.98591 12.0277 7.88923 11.999 7.79052 11.9996H6.00052C6.00052 8.09958 9.18052 4.94958 13.1005 4.99958C16.8205 5.04958 19.9505 8.17958 20.0005 11.8996C20.0505 15.8096 16.9005 18.9996 13.0005 18.9996C11.3905 18.9996 9.90052 18.4496 8.72052 17.5196C8.52898 17.3687 8.28867 17.2935 8.04529 17.3082C7.8019 17.323 7.57243 17.4267 7.40052 17.5996C6.98052 18.0196 7.01052 18.7296 7.48052 19.0896C9.05164 20.3321 10.9975 21.0053 13.0005 20.9996C18.0505 20.9996 22.1405 16.8296 22.0005 11.7396C21.8705 7.04958 17.9505 3.12958 13.2605 2.99958ZM12.7505 7.99958C12.3405 7.99958 12.0005 8.33958 12.0005 8.74958V12.4296C12.0005 12.7796 12.1905 13.1096 12.4905 13.2896L15.6105 15.1396C15.9705 15.3496 16.4305 15.2296 16.6405 14.8796C16.8505 14.5196 16.7305 14.0596 16.3805 13.8496L13.5005 12.1396V8.73958C13.5005 8.33958 13.1605 7.99958 12.7505 7.99958Z" fill="#6B7280"/>
</svg>
