<svg width="23" height="27" viewBox="0 0 23 27" fill="none" xmlns="http://www.w3.org/2000/svg">
<path d="M22.6807 5.85766C22.5965 5.79008 22.4956 5.74665 22.3887 5.73203C22.2818 5.71741 22.1729 5.73215 22.0737 5.77466L12.4137 9.95766C11.9937 10.1407 11.4677 10.2277 10.9277 10.2277C10.1747 10.2307 9.39567 10.0557 8.85267 9.81766C8.6872 9.74797 8.52964 9.66081 8.38267 9.55766C8.42267 9.53766 8.47267 9.51566 8.52767 9.49366L17.3137 5.68966L18.6237 6.24966V4.61266C18.6256 4.49592 18.6012 4.38025 18.5522 4.27427C18.5032 4.1683 18.4309 4.07477 18.3407 4.00066C18.2569 3.93316 18.1563 3.88976 18.0497 3.87513C17.9431 3.86051 17.8345 3.87521 17.7357 3.91766L8.07567 8.10066C7.77767 8.22066 7.52167 8.36866 7.30567 8.58366C7.05555 8.83042 6.91349 9.16631 6.91067 9.51766C6.91067 9.52766 6.91367 9.54466 6.91367 9.54466V24.2747L6.91167 24.2947C6.91167 24.2987 6.91467 24.3007 6.91467 24.3047V24.3207H6.91667C6.93667 24.8357 7.19667 25.1637 7.44467 25.3957C8.22467 26.0837 9.53467 26.4687 10.9287 26.4887C11.5887 26.4887 12.2587 26.3887 12.8787 26.1227L22.5417 21.9387C22.7967 21.8287 22.9637 21.5557 22.9637 21.2467V6.46966C22.9652 6.35299 22.9406 6.23746 22.8916 6.13155C22.8426 6.02564 22.7706 5.93205 22.6807 5.85766ZM16.5537 3.05766C16.5367 2.83766 16.4457 2.62766 16.2837 2.50166C16.1995 2.43408 16.0986 2.39065 15.9917 2.37603C15.8848 2.36141 15.7759 2.37615 15.6767 2.41866L6.01667 6.59966C5.59667 6.78166 5.06967 6.86966 4.53067 6.86966C3.77767 6.87166 2.99867 6.69666 2.45567 6.45766C2.29003 6.38913 2.13242 6.30261 1.98567 6.19966C2.02567 6.17966 2.07567 6.15766 2.13067 6.13566L10.9177 2.33166L12.2277 2.89166V1.25666C12.2295 1.13985 12.2048 1.02415 12.1557 0.918183C12.1065 0.812214 12.034 0.718717 11.9437 0.644663C11.8597 0.577168 11.7589 0.533787 11.6522 0.519166C11.5454 0.504546 11.4367 0.519235 11.3377 0.561663L1.67767 4.74566C1.37967 4.86566 1.12467 5.01266 0.907672 5.22866C0.657913 5.47559 0.51623 5.81146 0.513672 6.16266C0.513672 6.17466 0.516672 6.19066 0.516672 6.19066V20.9677H0.518672C0.538672 21.4827 0.798672 21.8107 1.04667 22.0427C1.82667 22.7307 3.13667 23.1147 4.53167 23.1347C4.91051 23.1324 5.28813 23.0916 5.65867 23.0127V9.54366C5.64867 8.84366 5.92867 8.17166 6.42067 7.68766C6.76153 7.35702 7.16653 7.09973 7.61067 6.93166L16.5537 3.05766Z" fill="#6B7280"/>
</svg>
