<svg xmlns="http://www.w3.org/2000/svg" xmlns:xlink="http://www.w3.org/1999/xlink" version="1.1" width="45" height="45" viewBox="0 0 256 256" xml:space="preserve">
    <defs>
    </defs>
    <g style="stroke: none; stroke-width: 0; stroke-dasharray: none; stroke-linecap: butt; stroke-linejoin: miter; stroke-miterlimit: 10; fill: none; fill-rule: nonzero; opacity: 1;" transform="translate(1.4065934065934016 1.4065934065934016) scale(2.81 2.81)" >
        <path d="M 88 19.229 H 29.664 c -1.104 0 -2 -0.896 -2 -2 s 0.896 -2 2 -2 H 88 c 1.104 0 2 0.896 2 2 S 89.104 19.229 88 19.229 z" style="stroke: none; stroke-width: 1; stroke-dasharray: none; stroke-linecap: butt; stroke-linejoin: miter; stroke-miterlimit: 10; fill: rgb(0,0,0); fill-rule: nonzero; opacity: 1;" transform=" matrix(1 0 0 1 0 0) " stroke-linecap="round" />
        <path d="M 88 47 H 29.664 c -1.104 0 -2 -0.896 -2 -2 s 0.896 -2 2 -2 H 88 c 1.104 0 2 0.896 2 2 S 89.104 47 88 47 z" style="stroke: none; stroke-width: 1; stroke-dasharray: none; stroke-linecap: butt; stroke-linejoin: miter; stroke-miterlimit: 10; fill: rgb(0,0,0); fill-rule: nonzero; opacity: 1;" transform=" matrix(1 0 0 1 0 0) " stroke-linecap="round" />
        <path d="M 88 74.771 H 29.664 c -1.104 0 -2 -0.896 -2 -2 s 0.896 -2 2 -2 H 88 c 1.104 0 2 0.896 2 2 S 89.104 74.771 88 74.771 z" style="stroke: none; stroke-width: 1; stroke-dasharray: none; stroke-linecap: butt; stroke-linejoin: miter; stroke-miterlimit: 10; fill: rgb(0,0,0); fill-rule: nonzero; opacity: 1;" transform=" matrix(1 0 0 1 0 0) " stroke-linecap="round" />
        <path d="M 9.574 26.802 C 4.295 26.802 0 22.507 0 17.229 c 0 -5.279 4.295 -9.574 9.574 -9.574 c 5.279 0 9.574 4.295 9.574 9.574 C 19.148 22.507 14.853 26.802 9.574 26.802 z M 9.574 11.654 C 6.5 11.654 4 14.155 4 17.229 c 0 3.073 2.5 5.574 5.574 5.574 c 3.073 0 5.574 -2.5 5.574 -5.574 C 15.148 14.155 12.647 11.654 9.574 11.654 z" style="stroke: none; stroke-width: 1; stroke-dasharray: none; stroke-linecap: butt; stroke-linejoin: miter; stroke-miterlimit: 10; fill: rgb(0,0,0); fill-rule: nonzero; opacity: 1;" transform=" matrix(1 0 0 1 0 0) " stroke-linecap="round" />
        <path d="M 9.574 54.574 C 4.295 54.574 0 50.279 0 45 s 4.295 -9.574 9.574 -9.574 c 5.279 0 9.574 4.295 9.574 9.574 S 14.853 54.574 9.574 54.574 z M 9.574 39.426 C 6.5 39.426 4 41.926 4 45 c 0 3.073 2.5 5.574 5.574 5.574 c 3.073 0 5.574 -2.501 5.574 -5.574 C 15.148 41.926 12.647 39.426 9.574 39.426 z" style="stroke: none; stroke-width: 1; stroke-dasharray: none; stroke-linecap: butt; stroke-linejoin: miter; stroke-miterlimit: 10; fill: rgb(0,0,0); fill-rule: nonzero; opacity: 1;" transform=" matrix(1 0 0 1 0 0) " stroke-linecap="round" />
        <path d="M 9.574 82.346 C 4.295 82.346 0 78.051 0 72.771 s 4.295 -9.574 9.574 -9.574 c 5.279 0 9.574 4.295 9.574 9.574 S 14.853 82.346 9.574 82.346 z M 9.574 67.197 C 6.5 67.197 4 69.698 4 72.771 s 2.5 5.574 5.574 5.574 c 3.073 0 5.574 -2.501 5.574 -5.574 S 12.647 67.197 9.574 67.197 z" style="stroke: none; stroke-width: 1; stroke-dasharray: none; stroke-linecap: butt; stroke-linejoin: miter; stroke-miterlimit: 10; fill: rgb(0,0,0); fill-rule: nonzero; opacity: 1;" transform=" matrix(1 0 0 1 0 0) " stroke-linecap="round" />
    </g>
</svg>